<svg width="2500" height="607" viewBox="0 0 2500 607" fill="none" xmlns="http://www.w3.org/2000/svg">
<g clip-path="url(#clip0_2_3)">
<path d="M343.4 91.1L0 72L223.8 312L343.4 91.1ZM171.6 65.5L330 76.8L133.7 0L171.6 65.5ZM369.9 76.8L454.3 0L511.2 81.6L369.9 76.8ZM360.4 92L236.1 321.5L349 445.7L476 327.2L511.1 99.6L360.4 92ZM242.8 357.5L183 607L338.5 459L242.8 357.5ZM472.3 3.8L533 81.6L814.7 3.8H472.3Z" fill="#29B2FE"/>
<path d="M736.2 145.1C736.3 164.4 735.1 183.6 732.6 202.7C712.7 203.4 687.8 196.2 688.5 230.4C719.1 229.7 727.3 230.4 727.3 230.4C727.3 230.4 725.9 290.9 680.3 288.6C663.9 381.1 648.3 462.2 648.3 462.2H575.3L615.1 203.5C615.1 203.5 624.3 150.9 672 145.3L736.2 145.1ZM704.2 462.4L742.6 226.3H809.5L814.7 244.1C814.7 244.1 831.5 220.6 882 226.3C869.9 283.9 867.8 292.5 867.8 292.5C867.8 292.5 812.3 286.8 808 304.6C803.7 322.4 781.7 462.5 781.7 462.5L704.2 462.4ZM1296.7 268.9C1281.8 241.9 1254.7 217.2 1190.7 225.3C1126.7 233.4 1080.8 296.4 1084 381.9C1090.5 453 1141 465.6 1158.7 468C1278.9 482.2 1280.4 419.6 1281.1 396.1C1256.2 396.1 1244.5 396.6 1234.1 396.8C1231.1 406.6 1182.4 401.8 1182.4 401.8C1182.4 401.8 1163.9 400.4 1162.5 367.7H1297C1296.9 367.7 1311.7 296 1296.7 268.9ZM1227.7 326.5C1214.2 327.9 1168.7 326.5 1168.7 326.5C1186.5 256.1 1235.5 286.7 1227.7 326.5ZM2241.3 268.9C2226.4 241.9 2199.3 217.2 2135.3 225.3C2071.3 233.4 2025.4 296.4 2028.6 381.9C2035.1 453 2085.6 465.6 2103.3 468C2223.5 482.2 2225 419.6 2225.7 396.1C2200.8 396.1 2189.1 396.6 2178.7 396.8C2175.7 406.6 2127 401.8 2127 401.8C2127 401.8 2108.5 400.4 2107.1 367.7H2241.4C2241.3 367.7 2255.9 296 2241.3 268.9ZM2172.3 326.5C2158.8 327.9 2113.3 326.5 2113.3 326.5C2130.8 256.1 2179.9 286.7 2172 326.5H2172.3Z" fill="white"/>
<path d="M1077.2 268.9C1062.3 241.9 1035.2 217.2 971.2 225.3C907.2 233.4 861.3 296.4 864.5 381.9C871 453 921.5 465.6 939.2 468C1059.4 482.2 1060.9 419.6 1061.6 396.1C1036.7 396.1 1025 396.6 1014.6 396.8C1011.6 406.6 962.9 401.8 962.9 401.8C962.9 401.8 944.4 400.4 943 367.7H1077.3C1077.2 367.7 1092.2 296 1077.2 268.9ZM1008.1 326.5C994.6 327.9 949.1 326.5 949.1 326.5C967.2 256.1 1016 286.7 1008.1 326.5ZM1347.2 150.8L1298.1 462.3H1376.4L1429 150.8H1347.2ZM1609.7 462.4L1649.5 225.4H1719.2V243.5C1719.2 243.5 1743.4 217.2 1807.4 225.4C1871.4 233.5 1839.4 347.2 1839.4 347.2L1822.3 462.6H1745.5C1745.5 462.6 1763.3 346.2 1766.8 315.3C1763.2 280.4 1722 281.9 1712 306.8C1707 337.4 1684.3 462.6 1684.3 462.6L1609.7 462.4ZM1956.1 293.1H2026.5L2033 246.9C2033 246.9 2041.5 225.6 2011.7 225.2C1981.9 224.8 1937 225.2 1937 225.2C1937 225.2 1849.5 237.6 1854.5 409.1C1859.1 439.7 1882.4 464.2 1912.7 470.2C1919.2 471.6 1964.4 470.2 1964.4 470.2C1964.4 470.2 2014.9 463.7 2007.8 400.5C1955.2 401.9 1933.1 404.1 1930.2 389.1C1927.2 374.2 1936.2 298.8 1956.1 293.1ZM2259.1 304.4L2351.1 225.1L2316 462.4H2238.3L2259.1 304.4Z" fill="white"/>
<path d="M2370.1 225.1L2356.8 310.1L2500 223.8L2370.1 225.1Z" fill="#29B2FE"/>
<path d="M1564.2 225.3C1505.2 224.8 1491.6 225.8 1469.6 225.3C1447.5 224.8 1432.6 257.6 1434 292.4H1524.5C1524.5 292.4 1533.7 291 1534.5 298.9C1534.9 306.5 1534.9 314.1 1534.5 321.7H1468.9C1468.9 321.7 1376.4 330.2 1405.6 441.9C1411.3 459 1439.7 470.9 1455.4 470.3C1471.1 469.7 1510.2 455.4 1516.6 449.7L1517.3 463.2L1587 462.5C1587 462.5 1610.5 316.7 1613.3 304.6C1616.1 292.5 1621.1 245.8 1564.2 225.3ZM1503.2 410.7C1475.7 410.7 1471.9 384.1 1493.8 369.9C1515.6 360.4 1528.9 366.1 1528.9 366.1C1528.9 366.1 1529.9 411.7 1503.2 410.7Z" fill="white"/>
</g>
<defs>
<clipPath id="clip0_2_3">
<rect width="2500" height="607" fill="white"/>
</clipPath>
</defs>
</svg>
