<svg width="644" height="32" viewBox="0 0 644 32" fill="none" xmlns="http://www.w3.org/2000/svg">
<g clip-path="url(#clip0_3_9)">
<mask id="mask0_3_9" style="mask-type:luminance" maskUnits="userSpaceOnUse" x="0" y="0" width="644" height="32">
<path d="M644 0H0V31.1111H644V0Z" fill="white"/>
</mask>
<g mask="url(#mask0_3_9)">
<path d="M0 12.4445C0 8.08848 0 5.9105 0.847727 4.24674C1.59341 2.78326 2.78326 1.59341 4.24674 0.847727C5.9105 0 8.08848 0 12.4444 0H631.555C635.911 0 638.089 0 639.753 0.847727C641.217 1.59341 642.407 2.78326 643.152 4.24674C644 5.9105 644 8.08848 644 12.4444V31.1111H0V12.4445Z" fill="#25334D"/>
<mask id="mask1_3_9" style="mask-type:luminance" maskUnits="userSpaceOnUse" x="556" y="5" width="76" height="20">
<path d="M631.556 5.44446H556.889V24.1112H631.556V5.44446Z" fill="white"/>
</mask>
<g mask="url(#mask1_3_9)">
<path d="M566.229 16.6239C566.557 16.6239 566.828 16.353 566.828 16.0305V9.54144L566.783 8.58679L567.176 9.05767L568.079 10.0188C568.182 10.1349 568.33 10.1929 568.478 10.1929C568.775 10.1929 569.02 9.98007 569.02 9.6769C569.02 9.51564 568.955 9.39953 568.846 9.28988L566.686 7.20641C566.532 7.0516 566.383 7 566.229 7C566.067 7 565.926 7.0516 565.771 7.20641L563.605 9.28988C563.496 9.39953 563.431 9.51564 563.431 9.6769C563.431 9.98007 563.67 10.1929 563.966 10.1929C564.114 10.1929 564.269 10.1349 564.372 10.0188L565.275 9.05767L565.674 8.58034L565.623 9.54144V16.0305C565.623 16.353 565.893 16.6239 566.229 16.6239ZM562.509 21.7778H569.935C571.334 21.7778 572.056 21.0553 572.056 19.675V13.3343C572.056 11.9539 571.334 11.2314 569.935 11.2314H568.195V12.5151H569.851C570.438 12.5151 570.773 12.8247 570.773 13.4439V19.5589C570.773 20.1781 570.438 20.4877 569.851 20.4877H562.593C562 20.4877 561.672 20.1781 561.672 19.5589V13.4439C561.672 12.8247 562 12.5151 562.593 12.5151H564.269V11.2314H562.509C561.117 11.2314 560.389 11.9474 560.389 13.3343V19.675C560.389 21.0553 561.117 21.7778 562.509 21.7778Z" fill="#B7B7B7"/>
<path d="M593.444 20.2223C593.854 20.2223 594.186 19.8896 594.186 19.5121V15.5072H598.154C598.551 15.5072 598.889 15.1809 598.889 14.7778C598.889 14.3812 598.551 14.0485 598.154 14.0485H594.186V10.0435C594.186 9.65966 593.854 9.33337 593.444 9.33337C593.041 9.33337 592.703 9.65966 592.703 10.0435V14.0485H588.735C588.351 14.0485 588 14.3812 588 14.7778C588 15.1809 588.351 15.5072 588.735 15.5072H592.703V19.5121C592.703 19.8896 593.041 20.2223 593.444 20.2223Z" fill="#B7B7B7"/>
<path d="M617.344 18.6938H618.44V19.6675C618.44 21.0475 619.169 21.7698 620.562 21.7698H627.101C628.493 21.7698 629.222 21.0475 629.222 19.6675V13.0834C629.222 11.7034 628.493 10.9812 627.101 10.9812H626.004V10.0139C626.004 8.63387 625.276 7.91162 623.883 7.91162H617.344C615.944 7.91162 615.222 8.63387 615.222 10.0139V16.5915C615.222 17.978 615.944 18.6938 617.344 18.6938ZM617.428 17.4105C616.834 17.4105 616.505 17.1009 616.505 16.4754V10.13C616.505 9.50444 616.834 9.20135 617.428 9.20135H623.799C624.386 9.20135 624.721 9.50444 624.721 10.13V10.9812H620.562C619.169 10.9812 618.44 11.7034 618.44 13.0834V17.4105H617.428ZM620.645 20.48C620.052 20.48 619.73 20.1705 619.73 19.5514V13.1995C619.73 12.5804 620.052 12.2709 620.645 12.2709H627.017C627.61 12.2709 627.939 12.5804 627.939 13.1995V19.5514C627.939 20.1705 627.61 20.48 627.017 20.48H620.645Z" fill="#B7B7B7"/>
</g>
<mask id="mask2_3_9" style="mask-type:luminance" maskUnits="userSpaceOnUse" x="74" y="5" width="77" height="20">
<path d="M150.889 5.44446H74.6666V24.1112H150.889V5.44446Z" fill="white"/>
</mask>
<g mask="url(#mask2_3_9)">
<path d="M78.3463 21.3999H89.3928C90.7937 21.3999 91.5233 20.6769 91.5233 19.2952V11.4381C91.5233 10.0565 90.7937 9.33337 89.3928 9.33337H78.3463C76.9517 9.33337 76.2222 10.05 76.2222 11.4381V19.2952C76.2222 20.6769 76.9517 21.3999 78.3463 21.3999ZM78.4302 20.1152C77.8362 20.1152 77.507 19.8053 77.507 19.179V11.5543C77.507 10.928 77.8362 10.6182 78.4302 10.6182H81.3742V20.1152H78.4302ZM89.3088 10.6182C89.9028 10.6182 90.2321 10.928 90.2321 11.5543V19.179C90.2321 19.8053 89.9028 20.1152 89.3088 20.1152H82.5944V10.6182H89.3088ZM80.1088 12.9811C80.3412 12.9811 80.5349 12.781 80.5349 12.5615C80.5349 12.3419 80.3412 12.1483 80.1088 12.1483H78.7853C78.5529 12.1483 78.3592 12.3419 78.3592 12.5615C78.3592 12.781 78.5529 12.9811 78.7853 12.9811H80.1088ZM80.1088 14.7178C80.3412 14.7178 80.5349 14.5241 80.5349 14.2982C80.5349 14.0787 80.3412 13.885 80.1088 13.885H78.7853C78.5529 13.885 78.3592 14.0787 78.3592 14.2982C78.3592 14.5241 78.5529 14.7178 78.7853 14.7178H80.1088ZM80.1088 16.4481C80.3412 16.4481 80.5349 16.2608 80.5349 16.0349C80.5349 15.8154 80.3412 15.6281 80.1088 15.6281H78.7853C78.5529 15.6281 78.3592 15.8154 78.3592 16.0349C78.3592 16.2608 78.5529 16.4481 78.7853 16.4481H80.1088Z" fill="#B7B7B7"/>
<path d="M116.199 20.2952L111.471 15.6711C111.307 15.507 111.222 15.3247 111.222 15.112C111.222 14.8994 111.307 14.7049 111.477 14.5469L116.205 9.92889C116.339 9.79521 116.509 9.72229 116.703 9.72229C117.11 9.72229 117.426 10.0383 117.426 10.4393C117.426 10.6337 117.347 10.8221 117.207 10.9619L112.954 15.106L117.207 19.2622C117.347 19.402 117.426 19.5843 117.426 19.7848C117.426 20.1858 117.11 20.5018 116.703 20.5018C116.509 20.5018 116.339 20.4289 116.199 20.2952Z" fill="#B7B7B7"/>
<path d="M139.556 20.5018C139.757 20.5018 139.921 20.4289 140.061 20.2952L144.788 15.6772C144.952 15.507 145.037 15.3308 145.037 15.112C145.037 14.8994 144.958 14.711 144.788 14.553L140.061 9.92889C139.921 9.79521 139.757 9.72229 139.556 9.72229C139.149 9.72229 138.833 10.0383 138.833 10.4393C138.833 10.6337 138.918 10.8221 139.052 10.9619L143.312 15.1181L139.052 19.2622C138.912 19.4081 138.833 19.5843 138.833 19.7848C138.833 20.1858 139.149 20.5018 139.556 20.5018Z" fill="#5A5A5A"/>
</g>
<mask id="mask3_3_9" style="mask-type:luminance" maskUnits="userSpaceOnUse" x="15" y="10" width="41" height="11">
<path d="M55.9999 10.8889H15.5555V20.2222H55.9999V10.8889Z" fill="white"/>
</mask>
<g mask="url(#mask3_3_9)">
<path d="M20.2222 20.2223C22.7995 20.2223 24.8889 18.1329 24.8889 15.5556C24.8889 12.9783 22.7995 10.8889 20.2222 10.8889C17.6449 10.8889 15.5555 12.9783 15.5555 15.5556C15.5555 18.1329 17.6449 20.2223 20.2222 20.2223Z" fill="#ED6A5E"/>
<path d="M20.2222 19.8334C22.5848 19.8334 24.5 17.9181 24.5 15.5556C24.5 13.193 22.5848 11.2778 20.2222 11.2778C17.8597 11.2778 15.9445 13.193 15.9445 15.5556C15.9445 17.9181 17.8597 19.8334 20.2222 19.8334Z" stroke="black" stroke-opacity="0.1" stroke-width="0.777778"/>
<path d="M35.7778 20.2223C38.3551 20.2223 40.4444 18.1329 40.4444 15.5556C40.4444 12.9783 38.3551 10.8889 35.7778 10.8889C33.2004 10.8889 31.1111 12.9783 31.1111 15.5556C31.1111 18.1329 33.2004 20.2223 35.7778 20.2223Z" fill="#F4BD50"/>
<path d="M35.7778 19.8334C38.1403 19.8334 40.0556 17.9181 40.0556 15.5556C40.0556 13.193 38.1403 11.2778 35.7778 11.2778C33.4152 11.2778 31.5 13.193 31.5 15.5556C31.5 17.9181 33.4152 19.8334 35.7778 19.8334Z" stroke="black" stroke-opacity="0.1" stroke-width="0.777778"/>
<path d="M51.3333 20.2223C53.9106 20.2223 56 18.1329 56 15.5556C56 12.9783 53.9106 10.8889 51.3333 10.8889C48.756 10.8889 46.6666 12.9783 46.6666 15.5556C46.6666 18.1329 48.756 20.2223 51.3333 20.2223Z" fill="#61C454"/>
<path d="M51.3333 19.8334C53.6959 19.8334 55.6111 17.9181 55.6111 15.5556C55.6111 13.193 53.6959 11.2778 51.3333 11.2778C48.9708 11.2778 47.0555 13.193 47.0555 15.5556C47.0555 17.9181 48.9708 19.8334 51.3333 19.8334Z" stroke="black" stroke-opacity="0.1" stroke-width="0.777778"/>
</g>
<path d="M220.889 21.7778C221.005 21.7778 221.178 21.7388 221.339 21.6478C225.046 19.6141 226.333 18.672 226.333 16.3069V11.4014C226.333 10.6217 226.031 10.3423 225.387 10.0629C224.673 9.75756 222.272 8.9129 221.571 8.6725C221.359 8.60102 221.108 8.55554 220.889 8.55554C220.67 8.55554 220.419 8.61402 220.207 8.6725C219.505 8.87391 217.105 9.76406 216.39 10.0629C215.747 10.3358 215.444 10.6217 215.444 11.4014V16.3069C215.444 18.672 216.738 19.6011 220.432 21.6478C220.599 21.7388 220.773 21.7778 220.889 21.7778ZM221.236 9.86802C222.079 10.2059 223.914 10.8621 224.879 11.2065C225.059 11.278 225.104 11.3754 225.104 11.6093V16.0665C225.104 17.9703 224.158 18.4836 221.256 20.2509C221.075 20.3613 220.985 20.4003 220.895 20.4003V9.79655C220.985 9.79655 221.082 9.81604 221.236 9.86802Z" fill="#B7B7B7"/>
<mask id="mask4_3_9" style="mask-type:luminance" maskUnits="userSpaceOnUse" x="234" y="4" width="176" height="23">
<path d="M409.889 4.66663H234.111V26.4444H409.889V4.66663Z" fill="white"/>
</mask>
<g mask="url(#mask4_3_9)">
<path d="M234.111 12.1333C234.111 9.51971 234.111 8.21292 234.62 7.21467C235.067 6.33658 235.781 5.62267 236.659 5.17526C237.657 4.66663 238.964 4.66663 241.578 4.66663H402.422C405.036 4.66663 406.343 4.66663 407.341 5.17526C408.219 5.62267 408.933 6.33658 409.38 7.21467C409.889 8.21292 409.889 9.51971 409.889 12.1333V18.9777C409.889 21.5913 409.889 22.8981 409.38 23.8964C408.933 24.7744 408.219 25.4884 407.341 25.9358C406.343 26.4444 405.036 26.4444 402.422 26.4444H241.578C238.964 26.4444 237.657 26.4444 236.659 25.9358C235.781 25.4884 235.067 24.7744 234.62 23.8964C234.111 22.8981 234.111 21.5913 234.111 18.9777V12.1333Z" fill="#3C5175"/>
<mask id="mask5_3_9" style="mask-type:luminance" maskUnits="userSpaceOnUse" x="395" y="10" width="11" height="11">
<path d="M405.611 10.1111H395.5V21H405.611V10.1111Z" fill="white"/>
</mask>
<g mask="url(#mask5_3_9)">
<path d="M400.423 15.3474C400.556 15.3474 400.66 15.3064 400.742 15.2198L402.611 13.3376C402.711 13.2374 402.757 13.128 402.757 13.0004C402.757 12.8774 402.707 12.7589 402.611 12.6677L400.742 10.7673C400.66 10.6762 400.556 10.6306 400.423 10.6306C400.177 10.6306 399.981 10.8357 399.981 11.0863C399.981 11.2094 400.027 11.3097 400.104 11.3962L401.194 12.4626C400.979 12.4307 400.761 12.4125 400.542 12.4125C398.286 12.4125 396.481 14.2172 396.481 16.4776C396.481 18.738 398.3 20.5564 400.556 20.5564C402.816 20.5564 404.63 18.738 404.63 16.4776C404.63 16.2042 404.438 16.0082 404.165 16.0082C403.901 16.0082 403.723 16.2042 403.723 16.4776C403.723 18.2367 402.315 19.6495 400.556 19.6495C398.801 19.6495 397.388 18.2367 397.388 16.4776C397.388 14.7048 398.787 13.3012 400.542 13.3012C400.838 13.3012 401.112 13.324 401.353 13.365L400.109 14.5955C400.027 14.6775 399.981 14.7778 399.981 14.9008C399.981 15.1514 400.177 15.3474 400.423 15.3474Z" fill="#E3E3E3"/>
</g>
<path d="M248 10.1666C246.392 10.1666 245.083 11.475 245.083 13.0833V14.8333H244.5C243.857 14.8333 243.333 15.3565 243.333 16V20.6666C243.333 21.31 243.857 21.8333 244.5 21.8333H251.5C252.143 21.8333 252.667 21.31 252.667 20.6666V16C252.667 15.3565 252.143 14.8333 251.5 14.8333H250.917V13.0833C250.917 11.475 249.608 10.1666 248 10.1666ZM251.5 16L251.501 20.6666H244.5V16H251.5ZM246.25 14.8333V13.0833C246.25 12.1185 247.035 11.3333 248 11.3333C248.965 11.3333 249.75 12.1185 249.75 13.0833V14.8333H246.25Z" fill="white"/>
</g>
</g>
<path d="M278.926 17.0625V21H277.92V12.2727H278.926V15.4773H279.011C279.165 15.1392 279.395 14.8707 279.702 14.6719C280.011 14.4702 280.423 14.3693 280.938 14.3693C281.384 14.3693 281.774 14.4588 282.109 14.6378C282.445 14.8139 282.705 15.0852 282.889 15.4517C283.077 15.8153 283.17 16.2784 283.17 16.8409V21H282.165V16.9091C282.165 16.3892 282.03 15.9872 281.76 15.7031C281.493 15.4162 281.122 15.2727 280.648 15.2727C280.318 15.2727 280.023 15.3423 279.761 15.4815C279.503 15.6207 279.298 15.8239 279.148 16.0909C279 16.358 278.926 16.6818 278.926 17.0625ZM287.669 21.1364C287.078 21.1364 286.56 20.9957 286.114 20.7145C285.671 20.4332 285.324 20.0398 285.074 19.5341C284.827 19.0284 284.703 18.4375 284.703 17.7614C284.703 17.0795 284.827 16.4844 285.074 15.9759C285.324 15.4673 285.671 15.0724 286.114 14.7912C286.56 14.5099 287.078 14.3693 287.669 14.3693C288.26 14.3693 288.777 14.5099 289.221 14.7912C289.667 15.0724 290.013 15.4673 290.26 15.9759C290.51 16.4844 290.635 17.0795 290.635 17.7614C290.635 18.4375 290.51 19.0284 290.26 19.5341C290.013 20.0398 289.667 20.4332 289.221 20.7145C288.777 20.9957 288.26 21.1364 287.669 21.1364ZM287.669 20.233C288.118 20.233 288.488 20.1179 288.777 19.8878C289.067 19.6577 289.282 19.3551 289.421 18.9801C289.56 18.6051 289.63 18.1989 289.63 17.7614C289.63 17.3239 289.56 16.9162 289.421 16.5384C289.282 16.1605 289.067 15.8551 288.777 15.6222C288.488 15.3892 288.118 15.2727 287.669 15.2727C287.221 15.2727 286.851 15.3892 286.561 15.6222C286.272 15.8551 286.057 16.1605 285.918 16.5384C285.779 16.9162 285.709 17.3239 285.709 17.7614C285.709 18.1989 285.779 18.6051 285.918 18.9801C286.057 19.3551 286.272 19.6577 286.561 19.8878C286.851 20.1179 287.221 20.233 287.669 20.233ZM295.017 14.4545V15.3068H291.625V14.4545H295.017ZM292.614 12.8864H293.619V19.125C293.619 19.4091 293.661 19.6222 293.743 19.7642C293.828 19.9034 293.936 19.9972 294.067 20.0455C294.2 20.0909 294.341 20.1136 294.489 20.1136C294.599 20.1136 294.69 20.108 294.761 20.0966C294.832 20.0824 294.889 20.071 294.932 20.0625L295.136 20.9659C295.068 20.9915 294.973 21.017 294.851 21.0426C294.729 21.071 294.574 21.0852 294.386 21.0852C294.102 21.0852 293.824 21.0241 293.551 20.902C293.281 20.7798 293.057 20.5938 292.878 20.3438C292.702 20.0938 292.614 19.7784 292.614 19.3977V12.8864ZM300.655 18.3239V14.4545H301.661V21H300.655V19.892H300.587C300.433 20.2244 300.195 20.5071 299.871 20.7401C299.547 20.9702 299.138 21.0852 298.643 21.0852C298.234 21.0852 297.871 20.9957 297.553 20.8168C297.234 20.6349 296.984 20.3622 296.803 19.9986C296.621 19.6321 296.53 19.1705 296.53 18.6136V14.4545H297.536V18.5455C297.536 19.0227 297.669 19.4034 297.936 19.6875C298.206 19.9716 298.55 20.1136 298.967 20.1136C299.217 20.1136 299.472 20.0497 299.73 19.9219C299.991 19.794 300.21 19.598 300.386 19.3338C300.565 19.0696 300.655 18.733 300.655 18.3239ZM305.429 21.1534C305.014 21.1534 304.637 21.0753 304.299 20.919C303.961 20.7599 303.693 20.5312 303.494 20.233C303.295 19.9318 303.196 19.5682 303.196 19.142C303.196 18.767 303.27 18.4631 303.417 18.2301C303.565 17.9943 303.762 17.8097 304.01 17.6761C304.257 17.5426 304.529 17.4432 304.828 17.3778C305.129 17.3097 305.431 17.2557 305.735 17.2159C306.133 17.1648 306.456 17.1264 306.703 17.1009C306.953 17.0724 307.135 17.0256 307.248 16.9602C307.365 16.8949 307.423 16.7812 307.423 16.6193V16.5852C307.423 16.1648 307.308 15.8381 307.078 15.6051C306.85 15.3722 306.505 15.2557 306.042 15.2557C305.562 15.2557 305.186 15.3608 304.913 15.571C304.64 15.7812 304.449 16.0057 304.338 16.2443L303.383 15.9034C303.554 15.5057 303.781 15.196 304.065 14.9744C304.352 14.75 304.664 14.5937 305.002 14.5057C305.343 14.4148 305.679 14.3693 306.008 14.3693C306.218 14.3693 306.46 14.3949 306.733 14.446C307.008 14.4943 307.274 14.5952 307.529 14.7486C307.788 14.902 308.002 15.1335 308.173 15.4432C308.343 15.7528 308.429 16.1676 308.429 16.6875V21H307.423V20.1136H307.372C307.304 20.2557 307.19 20.4077 307.031 20.5696C306.872 20.7315 306.66 20.8693 306.396 20.983C306.132 21.0966 305.809 21.1534 305.429 21.1534ZM305.582 20.25C305.98 20.25 306.315 20.1719 306.588 20.0156C306.863 19.8594 307.071 19.6577 307.21 19.4105C307.352 19.1634 307.423 18.9034 307.423 18.6307V17.7102C307.38 17.7614 307.287 17.8082 307.142 17.8509C307 17.8906 306.835 17.9261 306.647 17.9574C306.463 17.9858 306.282 18.0114 306.106 18.0341C305.933 18.054 305.792 18.071 305.684 18.0852C305.423 18.1193 305.179 18.1747 304.951 18.2514C304.727 18.3253 304.545 18.4375 304.406 18.5881C304.27 18.7358 304.201 18.9375 304.201 19.1932C304.201 19.5426 304.331 19.8068 304.589 19.9858C304.85 20.1619 305.181 20.25 305.582 20.25ZM311.27 17.0625V21H310.264V14.4545H311.236V15.4773H311.321C311.474 15.1449 311.707 14.8778 312.02 14.6761C312.332 14.4716 312.736 14.3693 313.23 14.3693C313.673 14.3693 314.061 14.4602 314.393 14.642C314.726 14.821 314.984 15.0938 315.169 15.4602C315.354 15.8239 315.446 16.2841 315.446 16.8409V21H314.44V16.9091C314.44 16.3949 314.307 15.9943 314.04 15.7074C313.773 15.4176 313.406 15.2727 312.94 15.2727C312.619 15.2727 312.332 15.3423 312.08 15.4815C311.83 15.6207 311.632 15.8239 311.487 16.0909C311.342 16.358 311.27 16.6818 311.27 17.0625ZM317.284 23.4545V14.4545H318.255V15.4943H318.375C318.449 15.3807 318.551 15.2358 318.681 15.0597C318.815 14.8807 319.005 14.7216 319.252 14.5824C319.502 14.4403 319.841 14.3693 320.267 14.3693C320.818 14.3693 321.304 14.5071 321.724 14.7827C322.145 15.0582 322.473 15.4489 322.708 15.9545C322.944 16.4602 323.062 17.0568 323.062 17.7443C323.062 18.4375 322.944 19.0384 322.708 19.5469C322.473 20.0526 322.146 20.4446 321.728 20.723C321.311 20.9986 320.829 21.1364 320.284 21.1364C319.863 21.1364 319.527 21.0668 319.274 20.9276C319.021 20.7855 318.826 20.625 318.69 20.446C318.554 20.2642 318.449 20.1136 318.375 19.9943H318.289V23.4545H317.284ZM318.272 17.7273C318.272 18.2216 318.345 18.6577 318.49 19.0355C318.635 19.4105 318.846 19.7045 319.125 19.9176C319.403 20.1278 319.744 20.233 320.147 20.233C320.568 20.233 320.919 20.1222 321.2 19.9006C321.484 19.6761 321.697 19.375 321.839 18.9972C321.984 18.6165 322.056 18.1932 322.056 17.7273C322.056 17.267 321.985 16.8523 321.843 16.483C321.704 16.1108 321.493 15.8168 321.208 15.6009C320.927 15.3821 320.574 15.2727 320.147 15.2727C319.738 15.2727 319.395 15.3764 319.116 15.5838C318.838 15.7884 318.627 16.0753 318.485 16.4446C318.343 16.8111 318.272 17.2386 318.272 17.7273ZM325.602 17.0625V21H324.596V12.2727H325.602V15.4773H325.687C325.841 15.1392 326.071 14.8707 326.377 14.6719C326.687 14.4702 327.099 14.3693 327.613 14.3693C328.059 14.3693 328.45 14.4588 328.785 14.6378C329.12 14.8139 329.38 15.0852 329.565 15.4517C329.752 15.8153 329.846 16.2784 329.846 16.8409V21H328.841V16.9091C328.841 16.3892 328.706 15.9872 328.436 15.7031C328.169 15.4162 327.798 15.2727 327.324 15.2727C326.994 15.2727 326.699 15.3423 326.437 15.4815C326.179 15.6207 325.974 15.8239 325.824 16.0909C325.676 16.358 325.602 16.6818 325.602 17.0625ZM333.612 21.1534C333.197 21.1534 332.821 21.0753 332.483 20.919C332.145 20.7599 331.876 20.5312 331.678 20.233C331.479 19.9318 331.379 19.5682 331.379 19.142C331.379 18.767 331.453 18.4631 331.601 18.2301C331.749 17.9943 331.946 17.8097 332.193 17.6761C332.44 17.5426 332.713 17.4432 333.011 17.3778C333.313 17.3097 333.615 17.2557 333.919 17.2159C334.317 17.1648 334.639 17.1264 334.886 17.1009C335.136 17.0724 335.318 17.0256 335.432 16.9602C335.548 16.8949 335.607 16.7812 335.607 16.6193V16.5852C335.607 16.1648 335.491 15.8381 335.261 15.6051C335.034 15.3722 334.689 15.2557 334.226 15.2557C333.746 15.2557 333.369 15.3608 333.097 15.571C332.824 15.7812 332.632 16.0057 332.521 16.2443L331.567 15.9034C331.737 15.5057 331.964 15.196 332.249 14.9744C332.536 14.75 332.848 14.5937 333.186 14.5057C333.527 14.4148 333.862 14.3693 334.192 14.3693C334.402 14.3693 334.643 14.3949 334.916 14.446C335.192 14.4943 335.457 14.5952 335.713 14.7486C335.972 14.902 336.186 15.1335 336.357 15.4432C336.527 15.7528 336.612 16.1676 336.612 16.6875V21H335.607V20.1136H335.555C335.487 20.2557 335.374 20.4077 335.214 20.5696C335.055 20.7315 334.844 20.8693 334.58 20.983C334.315 21.0966 333.993 21.1534 333.612 21.1534ZM333.766 20.25C334.163 20.25 334.499 20.1719 334.771 20.0156C335.047 19.8594 335.254 19.6577 335.393 19.4105C335.536 19.1634 335.607 18.9034 335.607 18.6307V17.7102C335.564 17.7614 335.47 17.8082 335.325 17.8509C335.183 17.8906 335.018 17.9261 334.831 17.9574C334.646 17.9858 334.466 18.0114 334.29 18.0341C334.116 18.054 333.976 18.071 333.868 18.0852C333.607 18.1193 333.362 18.1747 333.135 18.2514C332.911 18.3253 332.729 18.4375 332.589 18.5881C332.453 18.7358 332.385 18.9375 332.385 19.1932C332.385 19.5426 332.514 19.8068 332.773 19.9858C333.034 20.1619 333.365 20.25 333.766 20.25ZM341.294 14.4545V15.3068H337.902V14.4545H341.294ZM338.891 12.8864H339.897V19.125C339.897 19.4091 339.938 19.6222 340.02 19.7642C340.105 19.9034 340.213 19.9972 340.344 20.0455C340.478 20.0909 340.618 20.1136 340.766 20.1136C340.877 20.1136 340.968 20.108 341.039 20.0966C341.11 20.0824 341.167 20.071 341.209 20.0625L341.414 20.9659C341.346 20.9915 341.25 21.017 341.128 21.0426C341.006 21.071 340.851 21.0852 340.664 21.0852C340.38 21.0852 340.101 21.0241 339.828 20.902C339.559 20.7798 339.334 20.5938 339.155 20.3438C338.979 20.0938 338.891 19.7784 338.891 19.3977V12.8864ZM343.54 21.0682C343.33 21.0682 343.15 20.9929 342.999 20.8423C342.848 20.6918 342.773 20.5114 342.773 20.3011C342.773 20.0909 342.848 19.9105 342.999 19.7599C343.15 19.6094 343.33 19.5341 343.54 19.5341C343.75 19.5341 343.931 19.6094 344.081 19.7599C344.232 19.9105 344.307 20.0909 344.307 20.3011C344.307 20.4403 344.272 20.5682 344.201 20.6847C344.132 20.8011 344.04 20.8949 343.924 20.9659C343.81 21.0341 343.682 21.0682 343.54 21.0682ZM348.583 21.1364C348.038 21.1364 347.556 20.9986 347.139 20.723C346.721 20.4446 346.395 20.0526 346.159 19.5469C345.923 19.0384 345.805 18.4375 345.805 17.7443C345.805 17.0568 345.923 16.4602 346.159 15.9545C346.395 15.4489 346.723 15.0582 347.143 14.7827C347.564 14.5071 348.049 14.3693 348.6 14.3693C349.027 14.3693 349.363 14.4403 349.61 14.5824C349.86 14.7216 350.051 14.8807 350.181 15.0597C350.315 15.2358 350.419 15.3807 350.493 15.4943H350.578V12.2727H351.583V21H350.612V19.9943H350.493C350.419 20.1136 350.314 20.2642 350.177 20.446C350.041 20.625 349.846 20.7855 349.593 20.9276C349.341 21.0668 349.004 21.1364 348.583 21.1364ZM348.72 20.233C349.123 20.233 349.464 20.1278 349.743 19.9176C350.021 19.7045 350.233 19.4105 350.377 19.0355C350.522 18.6577 350.595 18.2216 350.595 17.7273C350.595 17.2386 350.524 16.8111 350.382 16.4446C350.24 16.0753 350.029 15.7884 349.751 15.5838C349.473 15.3764 349.129 15.2727 348.72 15.2727C348.294 15.2727 347.939 15.3821 347.654 15.6009C347.373 15.8168 347.162 16.1108 347.02 16.483C346.88 16.8523 346.811 17.267 346.811 17.7273C346.811 18.1932 346.882 18.6165 347.024 18.9972C347.169 19.375 347.382 19.6761 347.663 19.9006C347.947 20.1222 348.299 20.233 348.72 20.233ZM356.309 21.1364C355.679 21.1364 355.135 20.9972 354.677 20.7188C354.223 20.4375 353.872 20.0455 353.625 19.5426C353.38 19.0369 353.258 18.4489 353.258 17.7784C353.258 17.108 353.38 16.517 353.625 16.0057C353.872 15.4915 354.216 15.0909 354.656 14.804C355.099 14.5142 355.616 14.3693 356.207 14.3693C356.548 14.3693 356.885 14.4261 357.217 14.5398C357.549 14.6534 357.852 14.8381 358.125 15.0938C358.397 15.3466 358.615 15.6818 358.777 16.0994C358.939 16.517 359.02 17.0312 359.02 17.642V18.0682H353.974V17.1989H357.997C357.997 16.8295 357.923 16.5 357.775 16.2102C357.63 15.9205 357.423 15.6918 357.153 15.5241C356.886 15.3565 356.571 15.2727 356.207 15.2727C355.806 15.2727 355.46 15.3722 355.167 15.571C354.877 15.767 354.654 16.0227 354.498 16.3381C354.342 16.6534 354.264 16.9915 354.264 17.3523V17.9318C354.264 18.4261 354.349 18.8452 354.52 19.1889C354.693 19.5298 354.933 19.7898 355.24 19.9688C355.547 20.1449 355.903 20.233 356.309 20.233C356.574 20.233 356.812 20.196 357.025 20.1222C357.241 20.0455 357.427 19.9318 357.583 19.7812C357.74 19.6278 357.86 19.4375 357.946 19.2102L358.917 19.483C358.815 19.8125 358.643 20.1023 358.402 20.3523C358.16 20.5994 357.862 20.7926 357.507 20.9318C357.152 21.0682 356.752 21.1364 356.309 21.1364ZM365.702 14.4545L363.282 21H362.259L359.839 14.4545H360.93L362.737 19.6705H362.805L364.612 14.4545H365.702Z" fill="white"/>
</g>
<defs>
<clipPath id="clip0_3_9">
<rect width="644" height="32" fill="white"/>
</clipPath>
</defs>
</svg>
